<?xml version="1.0" encoding="utf-8"?>
<!-- Generator: Adobe Illustrator 18.0.0, SVG Export Plug-In . SVG Version: 6.00 Build 0)  -->
<!DOCTYPE svg PUBLIC "-//W3C//DTD SVG 1.1//EN" "http://www.w3.org/Graphics/SVG/1.1/DTD/svg11.dtd">
<svg version="1.1" id="Layer_1" xmlns="http://www.w3.org/2000/svg" xmlns:xlink="http://www.w3.org/1999/xlink" x="0px" y="0px"
	 viewBox="212 314 280 279.3" enable-background="new 212 314 280 279.3" xml:space="preserve">
<rect x="221" y="322.7" fill="#FFFFFF" stroke="#000000" stroke-width="12" stroke-miterlimit="10" width="261.4" height="261.4"/>
<g id="Layer_1_1_" display="none">
	
		<rect x="227" y="324.7" display="inline" fill="#FFFFFF" stroke="#000000" stroke-width="10" stroke-miterlimit="10" width="261.4" height="261.4"/>
	<g display="inline">
		<rect x="309.3" y="391" width="97.7" height="32.2"/>
		<rect x="309.3" y="391" width="32.2" height="130.7"/>
		<rect x="309.3" y="489.4" width="97.7" height="32.2"/>
	</g>
</g>
<rect x="368.9" y="421.6" transform="matrix(0.8605 0.5094 -0.5094 0.8605 296.7401 -127.0554)" width="23" height="113.6"/>
<rect x="341.9" y="405.6" transform="matrix(0.8605 0.5094 -0.5094 0.8605 284.8236 -115.5329)" width="23" height="113.6"/>
<rect x="273.4" y="512.9" transform="matrix(0.8605 0.5094 -0.5094 0.8605 310.7621 -88.1994)" width="86.1" height="20.9"/>
<path d="M281.2,540.9l36.8,21.8c10.3,6.1,23.6,2.7,29.7-7.6l0,0c6.1-10.3,2.7-23.6-7.6-29.7l-36.8-21.8c-10.3-6.1-23.6-2.7-29.7,7.6
	l0,0C267.5,521.5,270.9,534.8,281.2,540.9z"/>
<rect x="314.6" y="388.8" transform="matrix(0.8605 0.5094 -0.5094 0.8605 272.4993 -103.9652)" width="23" height="113.6"/>
<polygon points="391,359.2 427.1,381.3 425.6,346.8 "/>
</svg>
