<?xml version="1.0" encoding="utf-8"?>
<!-- Generator: Adobe Illustrator 18.0.0, SVG Export Plug-In . SVG Version: 6.00 Build 0)  -->
<!DOCTYPE svg PUBLIC "-//W3C//DTD SVG 1.1//EN" "http://www.w3.org/Graphics/SVG/1.1/DTD/svg11.dtd">
<svg version="1.1" id="Layer_1" xmlns="http://www.w3.org/2000/svg" xmlns:xlink="http://www.w3.org/1999/xlink" x="0px" y="0px"
	 viewBox="0 432 792 792" enable-background="new 0 432 792 792" xml:space="preserve">
<rect x="12.7" y="444" fill="#FFFFFF" stroke="#F3BABA" stroke-width="15" stroke-miterlimit="10" width="766.5" height="766.5"/>
<g id="Layer_1_1_" display="none">
	
		<rect x="263.2" y="789.2" display="inline" fill="#FFFFFF" stroke="#000000" stroke-width="10" stroke-miterlimit="10" width="766.5" height="766.5"/>
	<g display="inline">
		<rect x="504.5" y="983.6" width="286.5" height="94.4"/>
		<rect x="504.5" y="983.6" width="94.4" height="383.2"/>
		<rect x="504.5" y="1272.1" width="286.5" height="94.4"/>
	</g>
</g>
<rect x="446.3" y="733.9" transform="matrix(0.8605 0.5094 -0.5094 0.8605 525.6725 -118.9547)" fill="#F3BABA" width="67.5" height="333.1"/>
<rect x="367.2" y="687.1" transform="matrix(0.8605 0.5094 -0.5094 0.8605 490.7593 -85.1617)" fill="#F3BABA" width="67.5" height="333.1"/>
<rect x="166.5" y="1001.8" transform="matrix(0.8605 0.5094 -0.5094 0.8605 566.736 -5.0966)" fill="#F3BABA" width="252.4" height="61.3"/>
<path fill="#F3BABA" d="M189.3,1083.8l107.9,64c30.2,17.9,69.2,7.9,87.1-22.3l0,0c17.9-30.2,7.9-69.2-22.3-87.1l-107.9-64
	c-30.2-17.9-69.2-7.9-87.1,22.3l0,0C149.1,1026.9,159.1,1065.9,189.3,1083.8z"/>
<rect x="287.2" y="637.8" transform="matrix(0.8605 0.5094 -0.5094 0.8605 454.5193 -51.3167)" fill="#F3BABA" width="67.5" height="333.1"/>
<polygon fill="#F3BABA" points="511.3,551 617.1,615.8 612.7,514.6 "/>
</svg>
