<?xml version="1.0" encoding="utf-8"?>
<!-- Generator: Adobe Illustrator 18.0.0, SVG Export Plug-In . SVG Version: 6.00 Build 0)  -->
<!DOCTYPE svg PUBLIC "-//W3C//DTD SVG 1.1//EN" "http://www.w3.org/Graphics/SVG/1.1/DTD/svg11.dtd">
<svg version="1.1" id="Layer_1" xmlns="http://www.w3.org/2000/svg" xmlns:xlink="http://www.w3.org/1999/xlink" x="0px" y="0px"
	 viewBox="0 402.6 792 792" enable-background="new 0 402.6 792 792" xml:space="preserve">
<rect x="12.2" y="415.8" fill="#FFFFFF" stroke="#F3BABA" stroke-width="15" stroke-miterlimit="10" width="767.5" height="767.5"/>
<rect x="402.7" y="1242.4" fill="none" width="572" height="583.1"/>
<g enable-background="new    ">
	<path fill="#F3BABA" d="M413.6,1018.5c-119.3,0-207.5-93.5-207.5-208.2s88.2-210.5,208.2-210.5c76,0,123.1,28.1,160.3,69.2
		l-57,61.6c-28.1-29.6-57.8-50.2-104.1-50.2c-66.9,0-115.5,57.8-115.5,128.4c0,72.2,49.4,130,120.1,130c43.3,0,75.2-20.5,104.1-50.2
		l55.5,54.7C538.2,987.4,491.9,1018.5,413.6,1018.5z"/>
</g>
</svg>
