<?xml version="1.0" encoding="utf-8"?>
<!-- Generator: Adobe Illustrator 18.0.0, SVG Export Plug-In . SVG Version: 6.00 Build 0)  -->
<!DOCTYPE svg PUBLIC "-//W3C//DTD SVG 1.1//EN" "http://www.w3.org/Graphics/SVG/1.1/DTD/svg11.dtd">
<svg version="1.1" id="Layer_1" xmlns="http://www.w3.org/2000/svg" xmlns:xlink="http://www.w3.org/1999/xlink" x="0px" y="0px"
	 viewBox="0 254 792 798" enable-background="new 0 254 792 798" xml:space="preserve">
<rect x="12.8" y="270.5" fill="#FFFFFF" stroke="#000000" stroke-width="14" stroke-miterlimit="10" width="766.5" height="766.5"/>
<rect x="402.3" y="1028.3" fill="none" width="571.2" height="582.3"/>
<g enable-background="new    ">
	<path d="M413.6,872.4c-119.2,0-207.2-93.4-207.2-208s88-210.2,208-210.2c75.9,0,123,28.1,160.1,69.1l-56.9,61.5
		c-28.1-29.6-57.7-50.1-104-50.1c-66.8,0-115.4,57.7-115.4,128.3c0,72.1,49.3,129.8,119.9,129.8c43.3,0,75.1-20.5,104-50.1
		l55.4,54.6C538.1,841.3,491.8,872.4,413.6,872.4z"/>
</g>
</svg>
