<?xml version="1.0" encoding="utf-8"?>
<!-- Generator: Adobe Illustrator 18.0.0, SVG Export Plug-In . SVG Version: 6.00 Build 0)  -->
<!DOCTYPE svg PUBLIC "-//W3C//DTD SVG 1.1//EN" "http://www.w3.org/Graphics/SVG/1.1/DTD/svg11.dtd">
<svg version="1.1" id="Layer_1" xmlns="http://www.w3.org/2000/svg" xmlns:xlink="http://www.w3.org/1999/xlink" x="0px" y="0px"
	 viewBox="219 281 353 351" enable-background="new 219 281 353 351" xml:space="preserve">
<g>
	<g>
		<g>
			<rect id="SVGID_1_" x="225.2" y="286" fill="#999999" width="341" height="341"/>
		</g>
		<g>
			<g>
				<g>
					<defs>
						<rect id="SVGID_3_" x="225.2" y="286" width="341" height="341"/>
					</defs>
					<clipPath id="SVGID_4_">
						<use xlink:href="#SVGID_3_"  overflow="visible"/>
					</clipPath>
					
						<rect x="229.6" y="290.3" clip-path="url(#SVGID_4_)" fill="#999999" stroke="#999999" stroke-width="8.3084" width="332.3" height="332.3"/>
				</g>
			</g>
		</g>
		<g>
			
				<rect id="SVGID_2_" x="225.2" y="286" fill="none" stroke="#999999" stroke-width="1.1869" stroke-miterlimit="10" width="341" height="341"/>
		</g>
	</g>
	<rect x="225.2" y="286" fill="none" width="341" height="341"/>
	<path fill="none" stroke="#FFFFFF" stroke-width="8.3084" stroke-miterlimit="10" d="M465.4,437.9c0-36.9-31.2-66.8-69.8-66.8
		s-69.8,29.9-69.8,66.8v101.4l35-17.3l34.7,16.4l34.5-18.3l34.7,16.3L465.4,437.9z"/>
	<rect x="225.2" y="286" fill="none" stroke="#FFFFFF" stroke-width="1.1869" stroke-miterlimit="10" width="341" height="341"/>
	<path fill="none" stroke="#FFFFFF" stroke-width="5.9346" stroke-miterlimit="10" d="M361.5,448.3c4.6,0,8.4-3.7,8.4-8.2
		s-3.8-8.2-8.4-8.2s-8.4,3.7-8.4,8.2S356.7,448.3,361.5,448.3"/>
	<rect x="225.2" y="286" fill="none" width="341" height="341"/>
	<path fill="none" stroke="#FFFFFF" stroke-width="5.9346" stroke-miterlimit="10" d="M429.9,448.3c4.6,0,8.4-3.7,8.4-8.2
		s-3.8-8.2-8.4-8.2s-8.4,3.7-8.4,8.2S425.4,448.3,429.9,448.3"/>
</g>
</svg>
