<?xml version="1.0" encoding="utf-8"?>
<!-- Generator: Adobe Illustrator 18.0.0, SVG Export Plug-In . SVG Version: 6.00 Build 0)  -->
<!DOCTYPE svg PUBLIC "-//W3C//DTD SVG 1.1//EN" "http://www.w3.org/Graphics/SVG/1.1/DTD/svg11.dtd">
<svg version="1.1" id="Layer_1" xmlns="http://www.w3.org/2000/svg" xmlns:xlink="http://www.w3.org/1999/xlink" x="0px" y="0px"
	 viewBox="227 333 301 301" enable-background="new 227 333 301 301" xml:space="preserve">
<g>
	<g>
		<defs>
			<rect id="SVGID_2_" x="234.2" y="339.7" width="287.3" height="287.3"/>
		</defs>
		<clipPath id="SVGID_3_">
			<use xlink:href="#SVGID_2_"  overflow="visible"/>
		</clipPath>
		<rect x="237.9" y="343.3" clip-path="url(#SVGID_3_)" fill="none" stroke="#000000" stroke-width="7" width="280" height="280"/>
	</g>
	<g>
		<defs>
			<rect id="SVGID_4_" x="234.2" y="339.7" width="287.3" height="287.3"/>
		</defs>
		<clipPath id="SVGID_5_">
			<use xlink:href="#SVGID_4_"  overflow="visible"/>
		</clipPath>
		<path clip-path="url(#SVGID_5_)" fill="none" stroke="#000000" stroke-width="7" stroke-miterlimit="10" d="M436.6,467.7
			c0-31.1-26.3-56.3-58.8-56.3s-58.8,25.2-58.8,56.3v85.4l29.5-14.6l29.2,13.8l29.1-15.4l29.2,13.7L436.6,467.7z"/>
	</g>
	<g>
		<defs>
			<rect id="SVGID_6_" x="234.2" y="339.7" width="287.3" height="287.3"/>
		</defs>
		<clipPath id="SVGID_7_">
			<use xlink:href="#SVGID_6_"  overflow="visible"/>
		</clipPath>
		<path clip-path="url(#SVGID_7_)" fill="none" stroke="#000000" stroke-width="5" stroke-miterlimit="10" d="M349,476.4
			c3.9,0,7.1-3.1,7.1-6.9s-3.2-6.9-7.1-6.9s-7.1,3.1-7.1,6.9C341.9,473.3,345,476.4,349,476.4"/>
	</g>
	<g>
		<defs>
			<rect id="SVGID_8_" x="234.2" y="339.7" width="287.3" height="287.3"/>
		</defs>
		<clipPath id="SVGID_9_">
			<use xlink:href="#SVGID_8_"  overflow="visible"/>
		</clipPath>
		<path clip-path="url(#SVGID_9_)" fill="none" stroke="#000000" stroke-width="5" stroke-miterlimit="10" d="M406.7,476.4
			c3.9,0,7.1-3.1,7.1-6.9s-3.2-6.9-7.1-6.9s-7.1,3.1-7.1,6.9C399.6,473.3,402.9,476.4,406.7,476.4"/>
	</g>
	<g>
		
			<rect id="SVGID_1_" x="234.2" y="339.7" fill="none" stroke="#000000" stroke-width="7" stroke-miterlimit="10" width="287.3" height="287.3"/>
	</g>
</g>
</svg>
