<?xml version="1.0" encoding="utf-8"?>
<!-- Generator: Adobe Illustrator 18.0.0, SVG Export Plug-In . SVG Version: 6.00 Build 0)  -->
<!DOCTYPE svg PUBLIC "-//W3C//DTD SVG 1.1//EN" "http://www.w3.org/Graphics/SVG/1.1/DTD/svg11.dtd">
<svg version="1.1" id="Layer_1" xmlns="http://www.w3.org/2000/svg" xmlns:xlink="http://www.w3.org/1999/xlink" x="0px" y="0px"
	 viewBox="213 314 279 279" enable-background="new 213 314 279 279" xml:space="preserve">
<g id="Layer_1_1_" display="none">
	
		<rect x="227" y="324.7" display="inline" fill="#FFFFFF" stroke="#000000" stroke-width="10" stroke-miterlimit="10" width="261.4" height="261.4"/>
	<g display="inline">
		<rect x="309.3" y="391" width="97.7" height="32.2"/>
		<rect x="309.3" y="391" width="32.2" height="130.7"/>
		<rect x="309.3" y="489.4" width="97.7" height="32.2"/>
	</g>
</g>
<rect x="221" y="322.7" fill="#FFFFFF" stroke="#000000" stroke-width="12" stroke-miterlimit="10" width="261.4" height="261.4"/>
<rect x="311.5" y="371.6" transform="matrix(0.8605 0.5094 -0.5094 0.8605 263.2848 -104.7773)" width="23" height="113.6"/>
<rect x="338.5" y="387.6" transform="matrix(0.8605 0.5094 -0.5094 0.8605 275.2009 -116.2987)" width="23" height="113.6"/>
<rect x="343.9" y="372.9" transform="matrix(0.8605 0.5094 -0.5094 0.8605 249.2417 -143.6317)" width="86.1" height="20.9"/>
<path d="M422.2,365.9l-36.8-21.8c-10.3-6.1-23.6-2.7-29.7,7.6l0,0c-6.1,10.3-2.7,23.6,7.6,29.7l36.8,21.8
	c10.3,6.1,23.6,2.7,29.7-7.6l0,0C435.9,385.3,432.5,372,422.2,365.9z"/>
<rect x="365.8" y="404.3" transform="matrix(0.8605 0.5094 -0.5094 0.8605 287.49 -127.8758)" width="23" height="113.6"/>
<polygon points="312.4,547.6 276.3,525.5 277.8,560 "/>
</svg>
