<?xml version="1.0" encoding="utf-8"?>
<!-- Generator: Adobe Illustrator 18.0.0, SVG Export Plug-In . SVG Version: 6.00 Build 0)  -->
<!DOCTYPE svg PUBLIC "-//W3C//DTD SVG 1.1//EN" "http://www.w3.org/Graphics/SVG/1.1/DTD/svg11.dtd">
<svg version="1.1" id="Layer_1" xmlns="http://www.w3.org/2000/svg" xmlns:xlink="http://www.w3.org/1999/xlink" x="0px" y="0px"
	 viewBox="220 318 275.3 275.3" enable-background="new 220 318 275.3 275.3" xml:space="preserve">
<rect x="227" y="324.7" fill="#FFFFFF" stroke="#000000" stroke-width="10" stroke-miterlimit="10" width="261.4" height="261.4"/>
<g>
	<rect x="339.4" y="390.7" width="32.7" height="32.2"/>
	<rect x="307.2" y="422.9" width="32.2" height="65"/>
	<rect x="339.4" y="487.9" width="32.7" height="32.2"/>
	<path d="M339.3,455c-17.7,0-32.1-14.4-32.1-32.1s14.4-32.1,32.1-32.1"/>
	<path d="M339.4,520c-17.7,0-32.1-14.4-32.1-32.1c0-17.7,14.4-32.1,32.1-32.1"/>
	<path d="M340,422.9c0-17.7,14.4-32.1,32.1-32.1s32.1,14.4,32.1,32.1"/>
	<path d="M404.3,487.9c0,17.7-14.4,32.1-32.1,32.1c-17.7,0-32.1-14.4-32.1-32.1"/>
</g>
</svg>
