<?xml version="1.0" encoding="utf-8"?>
<!-- Generator: Adobe Illustrator 18.0.0, SVG Export Plug-In . SVG Version: 6.00 Build 0)  -->
<!DOCTYPE svg PUBLIC "-//W3C//DTD SVG 1.1//EN" "http://www.w3.org/Graphics/SVG/1.1/DTD/svg11.dtd">
<svg version="1.1" id="Layer_1" xmlns="http://www.w3.org/2000/svg" xmlns:xlink="http://www.w3.org/1999/xlink" x="0px" y="0px"
	 viewBox="219.3 275 319.3 319" enable-background="new 219.3 275 319.3 319" xml:space="preserve">
<rect x="227" y="283" fill="#999999" stroke="#999999" stroke-width="11.5953" stroke-miterlimit="10" width="303.1" height="303.1"/>
<g>
	<rect x="357.3" y="359.5" fill="#FFFFFF" width="37.9" height="37.3"/>
	<rect x="320" y="396.9" fill="#FFFFFF" width="37.3" height="75.4"/>
	<rect x="357.3" y="472.2" fill="#FFFFFF" width="37.9" height="37.3"/>
	<path fill="#FFFFFF" d="M357.2,434.1c-20.5,0-37.2-16.7-37.2-37.2s16.7-37.2,37.2-37.2"/>
	<path fill="#FFFFFF" d="M357.3,509.5c-20.5,0-37.2-16.7-37.2-37.2s16.7-37.2,37.2-37.2"/>
	<path fill="#FFFFFF" d="M358,396.9c0-20.5,16.7-37.2,37.2-37.2s37.2,16.7,37.2,37.2"/>
	<path fill="#FFFFFF" d="M432.6,472.2c0,20.5-16.7,37.2-37.2,37.2s-37.2-16.7-37.2-37.2"/>
</g>
</svg>
