<?xml version="1.0" encoding="utf-8"?>
<!-- Generator: Adobe Illustrator 18.0.0, SVG Export Plug-In . SVG Version: 6.00 Build 0)  -->
<!DOCTYPE svg PUBLIC "-//W3C//DTD SVG 1.1//EN" "http://www.w3.org/Graphics/SVG/1.1/DTD/svg11.dtd">
<svg version="1.1" id="Layer_1" xmlns="http://www.w3.org/2000/svg" xmlns:xlink="http://www.w3.org/1999/xlink" x="0px" y="0px"
	 viewBox="20.5 555.6 750.9 147.4" enable-background="new 20.5 555.6 750.9 147.4" xml:space="preserve">
<g>
	<rect x="20.6" y="561.9" fill="none" width="750.9" height="141"/>
	<text transform="matrix(1 0 0 1 20.5466 666.1625)" font-family="'Gotham-Medium'" font-size="142.8489" letter-spacing="-23">T</text>
	<text transform="matrix(1 0 0 1 87.6857 666.1625)" font-family="'Gotham-Medium'" font-size="142.8489" letter-spacing="-5">y</text>
	<text transform="matrix(1 0 0 1 165.1813 666.1625)" font-family="'Gotham-Medium'" font-size="142.8489" letter-spacing="-1">p</text>
	<text transform="matrix(1 0 0 1 255.8902 666.1625)" font-family="'Gotham-Medium'" font-size="142.8489" letter-spacing="-1">e</text>
	<text transform="matrix(1 0 0 1 338.0288 666.1625)" font-family="'Gotham-Medium'" font-size="142.8489" letter-spacing="-2">s</text>
	<text transform="matrix(1 0 0 1 403.3814 666.1625)" font-family="'Gotham-Medium'" font-size="142.8489" letter-spacing="-6">k</text>
	<text transform="matrix(1 0 0 1 476.234 666.1625)" font-family="'Gotham-Medium'" font-size="142.8489" letter-spacing="-2">e</text>
	<text transform="matrix(1 0 0 1 556.5865 666.1625)" font-family="'Gotham-Medium'" font-size="142.8489" letter-spacing="-5">t</text>
	<text transform="matrix(1 0 0 1 606.5847 666.1625)" font-family="'Gotham-Medium'" font-size="142.8489" letter-spacing="-2">c</text>
	<text transform="matrix(1 0 0 1 681.9381 666.1625)" font-family="'Gotham-Medium'" font-size="142.8489">h</text>
</g>
</svg>
