<?xml version="1.0" encoding="utf-8"?>
<!-- Generator: Adobe Illustrator 18.0.0, SVG Export Plug-In . SVG Version: 6.00 Build 0)  -->
<!DOCTYPE svg PUBLIC "-//W3C//DTD SVG 1.1//EN" "http://www.w3.org/Graphics/SVG/1.1/DTD/svg11.dtd">
<svg version="1.1" id="Layer_1" xmlns="http://www.w3.org/2000/svg" xmlns:xlink="http://www.w3.org/1999/xlink" x="0px" y="0px"
	 viewBox="98 548 549.1 112.8" enable-background="new 98 548 549.1 112.8" xml:space="preserve">
<rect x="102.9" y="558.6" fill="none" width="544.2" height="102.2"/>
<g enable-background="new    ">
	<path d="M142.8,634.1H130v-60.7h-23v-11.8h58.8v11.8h-23V634.1z"/>
</g>
<g enable-background="new    ">
	<path d="M188.6,635.7c-4.3,11.2-9.2,15.3-18,15.3c-5.3,0-9.1-1.2-12.9-3.3l4.2-9.3c2.3,1.2,4.8,2.1,7.4,2.1c3.5,0,5.7-1.6,7.8-6.3
		l-22.8-54.7h13.4l15.5,40.6l14.2-40.6h13L188.6,635.7z"/>
</g>
<g enable-background="new    ">
	<path d="M246.6,635.3c-9,0-14.7-4.6-18.5-9.6v25.1h-12.5v-71.2h12.5v9.1c4-5.7,9.7-10.2,18.5-10.2c12.9,0,25.5,10.2,25.5,28.5
		S259.7,635.3,246.6,635.3z M243.7,589.2c-8.5,0-15.9,6.9-15.9,17.6c0,10.7,7.5,17.6,15.9,17.6c8.6,0,15.6-6.7,15.6-17.6
		C259.4,596,252.2,589.2,243.7,589.2z"/>
</g>
<g enable-background="new    ">
	<path d="M306.6,625.1c6.1,0,10.5-2.3,14.8-6.5l7.4,6.5c-5.2,6.2-12.3,10.2-22.4,10.2c-15.8,0-28.1-11.5-28.1-28.5
		c0-15.7,11.1-28.6,26.7-28.6c17.4,0,26.2,13.7,26.2,29.5c0,1.1-0.1,2.2-0.2,3.4h-40.2C292.3,620.2,298.5,625.1,306.6,625.1z
		 M318.8,603c-0.8-8.1-5.6-14.4-13.9-14.4c-7.7,0-13,5.9-14.2,14.4H318.8z"/>
</g>
<g enable-background="new    ">
	<path d="M359.6,635.2c-7.8,0-16.4-2.8-23.2-8.2l5.6-8.5c5.9,4.5,12.3,6.7,17.9,6.7c5.4,0,8.5-2.3,8.5-5.9v-0.2
		c0-4.2-5.8-5.7-12.2-7.7c-8.1-2.3-17.1-5.6-17.1-16v-0.2c0-10.4,8.6-16.7,19.5-16.7c6.8,0,14.3,2.4,20.1,6.2l-5,8.9
		c-5.3-3.2-10.9-5.2-15.4-5.2c-4.9,0-7.7,2.3-7.7,5.5v0.2c0,3.9,5.9,5.6,12.3,7.7c8,2.5,17,6.1,17,15.9v0.2
		C379.9,629.5,371,635.2,359.6,635.2z"/>
</g>
<g enable-background="new    ">
	<path d="M439.4,634.1h-14.5l-16.5-23.6l-7.7,8v15.6h-12.5v-75.6h12.5v45.1l22.7-24.2h15.2l-21.7,22.3L439.4,634.1z"/>
</g>
<g enable-background="new    ">
	<path d="M466.3,625.1c6.1,0,10.5-2.3,14.8-6.5l7.4,6.5c-5.2,6.2-12.3,10.2-22.4,10.2c-15.8,0-28.1-11.5-28.1-28.5
		c0-15.7,11.1-28.6,26.7-28.6c17.4,0,26.2,13.7,26.2,29.5c0,1.1-0.1,2.2-0.2,3.4h-40.2C452,620.2,458.2,625.1,466.3,625.1z
		 M478.5,603c-0.8-8.1-5.6-14.4-13.9-14.4c-7.7,0-13,5.9-14.2,14.4H478.5z"/>
</g>
<g enable-background="new    ">
	<path d="M514.4,617c0,4.9,2.5,6.8,6.7,6.8c2.8,0,5.3-0.6,7.8-1.9v10.2c-3.1,1.8-6.6,2.8-11.3,2.8c-9.2,0-15.7-4-15.7-16v-28.8H495
		v-10.8h6.9v-15h12.5v15h14.7v10.8h-14.7V617z"/>
</g>
<g enable-background="new    ">
	<path d="M560.7,635.4c-16.3,0-28.3-12.7-28.3-28.4c0-15.6,12-28.7,28.4-28.7c10.4,0,16.8,3.8,21.8,9.4l-7.8,8.4
		c-3.8-4-7.9-6.8-14.2-6.8c-9.1,0-15.7,7.9-15.7,17.5c0,9.8,6.7,17.7,16.4,17.7c5.9,0,10.2-2.8,14.2-6.8l7.6,7.5
		C577.7,631.1,571.4,635.4,560.7,635.4z"/>
</g>
<g enable-background="new    ">
	<path d="M602.6,634.1h-12.5v-75.6h12.5V588c3.5-5.2,8.6-9.6,17.1-9.6c12.3,0,19.5,8.3,19.5,21v34.8h-12.5v-31.1
		c0-8.5-4.2-13.4-11.7-13.4c-7.2,0-12.3,5.1-12.3,13.6L602.6,634.1L602.6,634.1z"/>
</g>
</svg>
